<?xml version="1.0" encoding="utf-8"?>
<!-- Generator: Adobe Illustrator 21.1.0, SVG Export Plug-In . SVG Version: 6.00 Build 0)  -->
<svg version="1.1" id="Слой_1" xmlns="http://www.w3.org/2000/svg" xmlns:xlink="http://www.w3.org/1999/xlink" x="0px" y="0px"
	 viewBox="0 0 100 100" style="enable-background:new 0 0 100 100;" xml:space="preserve">
<style type="text/css">
	.st0{fill:#C69C6C;}
	.st1{fill:#A97C50;}
</style>
<g>
	<path class="st0" d="M50.5,99C23.6,99,1.7,77.1,1.7,50.2S23.6,1.4,50.5,1.4s48.8,21.9,48.8,48.8S77.4,99,50.5,99z M50.5,8.4
		c-23,0-41.8,18.7-41.8,41.8c0,23,18.7,41.8,41.8,41.8s41.8-18.7,41.8-41.8C92.2,27.1,73.5,8.4,50.5,8.4z"/>
</g>
<g>
	<path class="st1" d="M60.5,46.5l-4.7-6.7L50,31.6l-5.8,8.2l-4.7,6.7c-2.1,2.4-3.3,5.6-3.3,9c0,7.7,6.2,13.9,13.9,13.9
		s13.9-6.2,13.9-13.9C63.9,52.1,62.6,48.9,60.5,46.5z"/>
</g>
<g>
	<path class="st0" d="M40.2,52.1c-4.3,10.7,6.3,12.3,6.3,12.3C39.8,60.7,40.2,52.1,40.2,52.1z"/>
</g>
<g>
	<path class="st1" d="M50.2,77.1c-15,0-27.2-12.2-27.2-27.2s12.2-27.2,27.2-27.2s27.2,12.2,27.2,27.2S65.2,77.1,50.2,77.1z
		 M50.2,25.7C36.9,25.7,26,36.5,26,49.9s10.9,24.2,24.2,24.2s24.2-10.9,24.2-24.2S63.6,25.7,50.2,25.7z"/>
</g>
<path class="st0" d="M51,1.4C24.1,1.4,2.2,23.3,2.2,50.2S24.1,99,51,99c26.9,0,48.8-21.9,48.8-48.8S77.9,1.4,51,1.4z M51,92
	c-10.3,0-19.7-3.7-27-9.9l6.8-6.8c-2.4-1.8-4.5-4-6.3-6.4l-6.7,6.7c-5.4-7-8.6-15.8-8.6-25.4C9.2,27.1,28,8.4,51,8.4
	c9.5,0,18.3,3.2,25.4,8.6l-7.1,7.1c2.4,1.8,4.6,3.9,6.4,6.3l7.2-7.2c6.2,7.3,9.9,16.7,9.9,27C92.8,73.2,74,92,51,92z"/>
</svg>
