<?xml version="1.0" encoding="utf-8"?>
<svg version="1.1" id="Слой_1" xmlns="http://www.w3.org/2000/svg" xmlns:xlink="http://www.w3.org/1999/xlink" x="0px" y="0px"
	 viewBox="0 0 75 74.9" style="enable-background:new 0 0 75 74.9;" xml:space="preserve">
<style type="text/css">
	.st0{fill:#2D8CEB;}
	.st1{fill:#C69C6C;}
</style>
<g>
			<path class="st1" d="M44.8,41.5c-0.3-0.6-0.9-0.9-1.6-0.9c-0.3,0-0.6,0.1-0.9,0.2c-0.5,0.3-0.9,0.5-1.4,0.5c-0.1,0-0.3,0-0.4,0
				c-0.8-0.1-1.8-1.1-2.7-2.6c-0.9-1.5-1.3-3-1-3.7c0.3-0.8,0.8-1.1,1.3-1.4c0.9-0.5,1.2-1.6,0.7-2.5l-1.3-2.2
				c-0.3-0.6-0.9-0.9-1.6-0.9c-0.3,0-0.7,0.1-0.9,0.3l-0.8,0.5c-1.1,0.6-1.4,1.8-1.6,2.9c-0.4,2.4,0.4,5.4,2.3,8.8
				c1.9,3.4,4.2,5.6,6.4,6.4c0.7,0.3,1.3,0.4,1.9,0.4c0.5,0,1-0.1,1.4-0.4l0.8-0.5c0.9-0.5,1.2-1.6,0.7-2.5L44.8,41.5z M44.9,45.3
				l-0.8,0.5c-0.5,0.3-1.3,0.3-2.4-0.1c-1.9-0.7-4.1-2.9-5.9-5.9c-1.8-3.2-2.6-6-2.2-8c0.2-1.2,0.5-1.8,1.1-2.1l0.8-0.5
				c0.1-0.1,0.3-0.1,0.4-0.1c0.3,0,0.5,0.1,0.6,0.3l1.3,2.2c0.2,0.4,0.1,0.8-0.3,1c-0.6,0.4-1.3,0.8-1.8,1.9c-0.4,1.1-0.1,2.8,1,4.7
				c1.1,1.8,2.4,3,3.5,3.2c0.2,0,0.4,0,0.6,0c0.9,0,1.5-0.3,2-0.6c0.1-0.1,0.2-0.1,0.4-0.1c0.3,0,0.5,0.1,0.6,0.4l1.3,2.2
				C45.4,44.6,45.2,45.1,44.9,45.3L44.9,45.3z M44.9,45.3"/>
</g>
</svg>
