<?xml version="1.0" encoding="utf-8"?>
<!-- Generator: Adobe Illustrator 21.1.0, SVG Export Plug-In . SVG Version: 6.00 Build 0)  -->
<svg version="1.1" id="Слой_1" xmlns="http://www.w3.org/2000/svg" xmlns:xlink="http://www.w3.org/1999/xlink" x="0px" y="0px"
	 viewBox="0 0 100 100" style="enable-background:new 0 0 100 100;" xml:space="preserve">
<style type="text/css">
	.st0{fill:#A97C50;}
	.st1{fill:#C69C6C;}
	.st2{fill:#FFFFFF;}
</style>
<g>
	<g>
		<path class="st0" d="M38,48.9h-1.9l-0.5-2c-1.4,1.7-3.1,2.5-5.3,2.5c-4.8,0-8.1-3.6-8.1-8.9c0-5,3.1-9,8.4-9
			c3.6,0,6.9,2.1,7.2,5.8h-2.9c-0.4-2-2-3.3-4.4-3.3c-3.3,0-5.3,2.5-5.3,6.5c0,4,2,6.5,5.4,6.5c3.1,0,4.7-2.3,4.7-4.8h-4.6v-2.3H38
			V48.9z"/>
	</g>
	<g>
		<path class="st0" d="M59.1,48.9h-2.9V35.7l-4.8,13.2H49l-4.9-13.2v13.2h-2.8V31.8h4.2l4.8,13.4l4.6-13.4h4.2V48.9z"/>
	</g>
	<g>
		<path class="st0" d="M78.2,40.4c0,5.3-3.3,9-8.2,9c-4.9,0-8.2-3.6-8.2-9c0-5,3-9,8.3-9C74.9,31.4,78.2,35.1,78.2,40.4z M64.8,40.3
			c0,4,2,6.5,5.2,6.5c3.1,0,5.1-2.6,5.1-6.5c0-3.9-2-6.4-5.2-6.4C66.8,33.9,64.8,36.5,64.8,40.3z"/>
	</g>
	<g>
		<path class="st0" d="M33.6,56.3h-9v6h8v1.4h-8v7.9H23V54.9h10.6V56.3z"/>
	</g>
	<g>
		<path class="st0" d="M43.1,54.9c2.9,0,5.2,1.3,5.2,4.5c0,2.2-1.2,3.6-3.2,4.1c2.1,0.4,2.8,1.5,2.9,3.8c0,0.7,0,3.5,0.8,4.3h-1.8
			c-0.5-0.6-0.4-2.8-0.5-3.7c-0.2-3.1-1.4-3.7-4.4-3.7h-4.9v7.4h-1.6V54.9H43.1z M37.1,62.9h4.7c2.4,0,4.9-0.4,4.9-3.4
			c0-2.5-2-3.2-4.1-3.2h-5.4V62.9z"/>
	</g>
	<g>
		<path class="st0" d="M62.6,56.3h-9.9v6H62v1.3h-9.3v6.6h10v1.4H51.1V54.9h11.5V56.3z"/>
	</g>
	<g>
		<path class="st0" d="M76.5,56.3h-9.9v6h9.3v1.3h-9.3v6.6h10v1.4H64.9V54.9h11.5V56.3z"/>
	</g>
</g>
<g>
	<path class="st1" d="M50.5,99C23.6,99,1.7,77.1,1.7,50.2S23.6,1.4,50.5,1.4s48.8,21.9,48.8,48.8S77.4,99,50.5,99z M50.5,8.4
		c-23,0-41.8,18.7-41.8,41.8c0,23,18.7,41.8,41.8,41.8s41.8-18.7,41.8-41.8C92.2,27.1,73.5,8.4,50.5,8.4z"/>
</g>
<g>
	<g>
		<path class="st0" d="M49.9,26.1c1.6-9.9,14.9-3.8,14.9-3.8C58.4,26.3,49.9,26.1,49.9,26.1z"/>
	</g>
	<path class="st0" d="M37.5,22.5c8.6,4.8,15.6,3.5,15.6,3.5C47.3,16.1,37.5,22.5,37.5,22.5z M49.5,24.9c-0.3-0.2-0.7-0.3-1-0.5
		c-0.7-0.3-1.4-0.6-2.1-0.8c-0.7-0.3-1.4-0.5-2.2-0.7c-0.7-0.2-1.5-0.3-2.3-0.4c1.5-0.1,3.1,0.3,4.5,0.8c0.7,0.3,1.4,0.6,2.1,0.9
		c0.7,0.4,1.4,0.7,2,1.2C50.2,25.2,49.8,25,49.5,24.9z"/>
	<path class="st2" d="M58.1,22.1c-0.8,0.1-1.5,0.4-2.2,0.6c-1.5,0.5-2.9,1.1-4.1,2.1c0.6-0.4,1.3-0.8,2-1c0.7-0.3,1.4-0.6,2.2-0.8
		c0.7-0.2,1.5-0.4,2.2-0.6c0.4-0.1,0.7-0.2,1.1-0.3c0.4-0.1,0.8-0.2,1.1-0.1C59.6,21.8,58.8,22,58.1,22.1z"/>
	<path class="st0" d="M48.8,15.2c0,0-4,5.1,2.3,9.1C51.1,24.3,54.9,19.1,48.8,15.2z M49.7,19.9c-0.1-0.5-0.2-0.9-0.3-1.4
		c-0.1-0.5-0.1-1,0-1.4c0.2,1.9,0.9,3.6,1.6,5.4C50.4,21.7,50,20.8,49.7,19.9z"/>
</g>
</svg>
