<?xml version="1.0" encoding="utf-8"?>
<!-- Generator: Adobe Illustrator 21.1.0, SVG Export Plug-In . SVG Version: 6.00 Build 0)  -->
<svg version="1.1" id="Слой_1" xmlns="http://www.w3.org/2000/svg" xmlns:xlink="http://www.w3.org/1999/xlink" x="0px" y="0px"
	 viewBox="0 0 100 100" style="enable-background:new 0 0 100 100;" xml:space="preserve">
<style type="text/css">
	.st0{fill:#C69C6C;}
	.st1{fill:#A97C50;}
</style>
<g>
	<path class="st0" d="M50,99C23.1,99,1.2,77.1,1.2,50.2S23.1,1.4,50,1.4c26.9,0,48.8,21.9,48.8,48.8S76.9,99,50,99z M50,8.4
		C27,8.4,8.2,27.1,8.2,50.2C8.2,73.2,27,92,50,92c23,0,41.8-18.7,41.8-41.8C91.8,27.1,73,8.4,50,8.4z"/>
</g>
<g>
	<g>
		<path class="st1" d="M31.9,51.9H28V29.9h3.9V51.9z"/>
	</g>
	<g>
		<path class="st1" d="M47.1,36.4c-0.2-2.7-2.1-3.9-4.8-3.9c-2.6,0-4.2,1.1-4.2,3.1c0,2.1,1.4,2.2,5.6,3.3c3.7,1,7.9,1.8,7.9,6.6
			c0,5-4.4,6.9-8.7,6.9c-5.2,0-9.2-2.5-9.2-7.8h3.8c0,3.4,2.6,4.7,5.7,4.7c3,0,4.7-1.3,4.7-3.5c0-2.3-1.9-2.7-5.1-3.5
			c-4.7-1.2-8.3-2-8.3-6.4c0-3.9,3.2-6.4,8.1-6.4c4.5,0,8,2,8.2,6.9H47.1z"/>
	</g>
	<g>
		<path class="st1" d="M73.3,40.9c0,6.8-4.3,11.5-10.5,11.5c-6.3,0-10.5-4.7-10.5-11.5c0-6.4,3.9-11.5,10.6-11.5
			C69,29.4,73.3,34.1,73.3,40.9z M56.1,40.8c0,5.1,2.6,8.3,6.7,8.3c4,0,6.6-3.3,6.6-8.3c0-5-2.6-8.2-6.7-8.2
			C58.8,32.6,56.1,35.9,56.1,40.8z"/>
	</g>
	<g>
		<path class="st1" d="M29.3,66.8c0.2,1.2,1,1.8,2.1,1.8c2.3,0,2.7-2.8,2.9-4.7c-0.8,1.2-1.8,1.8-3.3,1.8c-2.9,0-4.9-2.2-4.9-5.1
			c0-3.2,2.4-5.6,5.6-5.6c4.3,0,5.8,3.9,5.8,7.6c0,3.8-1.4,8.4-6,8.4c-2.8,0-4.8-1.6-5.1-4.2H29.3z M29.2,60.4c0,1.6,1,2.8,2.5,2.8
			c1.4,0,2.5-1.2,2.5-2.8c0-1.6-1.1-2.9-2.5-2.9C30.2,57.6,29.2,58.8,29.2,60.4z"/>
	</g>
	<g>
		<path class="st1" d="M50,63c0,4.9-2.1,7.9-5.7,7.9c-3.6,0-5.8-3-5.8-7.9c0-3.7,1.3-8,5.7-8C48.8,55,50,59.4,50,63z M41.7,63.2
			c0,3.5,0.8,5.2,2.6,5.2c1.7,0,2.6-1.8,2.6-5.4c0-3.7-0.8-5.4-2.6-5.4C41.7,57.6,41.7,61.3,41.7,63.2z"/>
	</g>
	<g>
		<path class="st1" d="M62.3,63c0,4.9-2.1,7.9-5.7,7.9c-3.6,0-5.8-3-5.8-7.9c0-3.7,1.3-8,5.7-8C61.1,55,62.3,59.4,62.3,63z M54,63.2
			c0,3.5,0.8,5.2,2.6,5.2c1.7,0,2.6-1.8,2.6-5.4c0-3.7-0.8-5.4-2.6-5.4C54,57.6,54,61.3,54,63.2z"/>
	</g>
	<g>
		<path class="st1" d="M71.6,70.7h-3.4V60.6h-3.8v-2.3h0.4c2.2,0,3.7-0.8,4.1-3.1h2.6V70.7z"/>
	</g>
</g>
</svg>
