<?xml version="1.0" encoding="utf-8"?>
<!-- Generator: Adobe Illustrator 21.1.0, SVG Export Plug-In . SVG Version: 6.00 Build 0)  -->
<svg version="1.1" id="Слой_1" xmlns="http://www.w3.org/2000/svg" xmlns:xlink="http://www.w3.org/1999/xlink" x="0px" y="0px"
	 viewBox="0 0 100 100" style="enable-background:new 0 0 100 100;" xml:space="preserve">
<style type="text/css">
	.st0{fill:#C69C6C;}
	.st1{fill:#A97C50;}
</style>
<g>
	<path class="st0" d="M50.3,99C23.4,99,1.5,77.1,1.5,50.2S23.4,1.4,50.3,1.4s48.8,21.9,48.8,48.8S77.2,99,50.3,99z M50.3,8.4
		c-23,0-41.8,18.7-41.8,41.8c0,23,18.7,41.8,41.8,41.8c23,0,41.8-18.7,41.8-41.8C92.1,27.1,73.3,8.4,50.3,8.4z"/>
</g>
<g>
	<g>
		<path class="st1" d="M61.2,81.5c-0.5-0.1-1-0.3-1.5-0.3c-0.3,0-0.4-0.2-0.5-0.3c-0.4-0.4-0.7-0.9-1.2-1.2
			c-0.2-0.2-0.6-0.3-0.9-0.4c-0.5-0.2-0.9-0.3-1.4-0.5c-1.4-0.7-2.8-1.3-4.2-2c-0.3-0.1-0.5-0.4-0.8-0.6c0,0-0.1-0.1-0.1-0.1
			c-0.5-0.9,0.4-2.7,1.4-2.9c0.2,0,0.4,0,0.4,0.2c0.1,0.1,0.1,0.3,0.3,0.5c0.2-0.2,0.4-0.5,0.6-0.7c0.4-0.4,0.6-0.5,1.1-0.2
			c0.5,0.3,1,0.5,1.5,0.8c0.4,0.2,0.7,0.2,1.2,0.1c0.6-0.1,1.2-0.1,1.8,0c0.5,0.1,1,0,1.5-0.2c0.7-0.2,1.4-0.4,2.1-0.6
			c0.8-0.2,1.6-0.4,2.3-0.6c0,0,0.1,0,0.1-0.1c0.2-0.2,0.3-1,0.2-1.3c-0.2-0.4-0.2-0.6,0.3-0.7c0.3-0.1,0.6-0.2,0.8-0.4
			c0.2-0.1,0.2-0.4,0.1-0.6c-0.1-0.2-0.1-0.3-0.2-0.5C66,68.4,66,68,66,67.6c0-0.2,0-0.5-0.2-0.7c-0.5-1-1-1.9-1.6-2.9
			c-0.1-0.1-0.2-0.3-0.2-0.4c-0.1-0.2-0.3-0.3-0.6-0.1c-0.1,0.1-0.3,0.1-0.4,0c-0.7-0.5-1.4-1.1-2.2-1.6c0.3-0.6,0-1-0.2-1.4
			c-0.2-0.4-0.6-0.4-1-0.3c-0.4,0.1-0.8,0.2-1.2,0.2c0.1-0.3,0.1-0.5,0.2-0.7c0.1-0.5-0.1-0.7-0.5-0.6c-0.3,0.1-0.5,0.2-0.8,0.2
			c-0.5,0.1-0.7-0.1-0.7-0.6c0-0.3,0-0.5,0-0.8c-0.1-0.7-0.7-1.2-1.4-1.2c-0.3,0-0.6-0.1-1-0.1c-0.2,0-0.5,0.1-0.7,0.2
			c-0.5,0.3-0.9,0.7-1.4,1c0.2-0.5,0.3-0.9,0.7-1.2c0.3-0.2,0.3-0.3,0.1-0.5c-0.3-0.4-0.7-0.7-1.2-0.8c-0.4-0.1-0.8-0.4-1-0.7
			c-0.6-0.6-1-1.3-1.6-2c-0.2-0.2-0.4-0.3-0.7-0.5c-0.3-0.3-0.6-0.6-0.9-0.9c-0.5-0.5-1-1-1.6-1.5c-0.2-0.2-0.4-0.1-0.6,0.1
			c-0.1,0.1-0.2,0.1-0.4,0.1c0-0.1,0-0.3,0-0.4c0.1-0.2,0.2-0.3,0.3-0.4c-0.2-0.1-0.4-0.2-0.5-0.3c-0.2-0.1-0.3-0.3-0.5-0.5
			c-0.1-0.1-0.2-0.2-0.3-0.3c-0.4-0.1-0.5-0.4-0.7-0.8c-0.2-0.6-0.2-0.6-0.8-0.5c-0.3,0.1-0.3-0.1-0.4-0.3c-0.1-0.6-0.1-1.1-0.3-1.7
			c-0.4-1.3-0.8-2.5-1.3-3.8c-0.2-0.6-0.7-1-1.4-0.9c-0.1,0-0.4-0.1-0.5-0.2c-0.4-0.3-0.8-0.6-1.2-0.9c-0.1-0.1-0.3-0.2-0.4-0.2
			c-0.4-0.1-0.9-0.2-1.3-0.3c-0.3-0.1-0.7-0.1-1-0.1c-0.4,0-0.7,0.2-1,0.5c-0.5,0.6-1,1.3-1.4,1.9c-0.1,0.2-0.3,0.4-0.5,0.5
			c-0.5,0.3-1.1,0.5-1.7,0.7c-0.1,0-0.4-0.1-0.5-0.3c-0.2-0.2-0.1-0.3,0.1-0.5c0.2-0.3,0.4-0.6,0.6-0.9c0.1-0.2,0.1-0.5-0.1-0.6
			c-0.1-0.1-0.4-0.1-0.5,0c-0.4,0.3-0.9,0.2-1.3,0.1c-0.6-0.2-1.2-0.4-1.9-0.6c0.1-0.4,0.2-0.6,0.3-0.9c0.1-0.3,0-0.6,0.1-0.8
			c0-0.1,0-0.2,0.1-0.3c0-0.1,0.1-0.1,0.1-0.2c0.6-0.7,0.6-0.7-0.2-1.3c-0.4-0.3-0.8-0.7-1.1-1.1c0,0,0-0.3,0.1-0.3
			c0.3-0.2,0.6-0.3,0.9-0.4c0.6-0.2,1-0.5,1.2-1.1c0.1-0.2,0-0.5-0.1-0.6c-0.2-0.4-0.5-0.8-0.7-1.2c-0.1-0.1-0.2-0.3-0.3-0.4
			c-0.3-0.3-0.3-0.5,0-0.7c0.5-0.3,1-0.8,1.7-0.5c0.1,0,0.1,0,0.2,0c0.6-0.1,1.2-0.1,1.7-0.2c0.6,0,1.4-0.8,1.5-1.5
			c0.1-0.6,0.8-1.4,1.5-1.6c0.1,0.2,0.1,0.4,0.2,0.7c0.2,0.8,0.6,1.4,1.5,1.6c0.1,0,0.2,0.2,0.3,0.4c0.1,0.5,0.3,0.7,0.7,1
			c0.1-0.4,0.2-0.7,0.3-1c0.1-0.5,0.3-1,0.4-1.5c0.1-0.4,0.2-0.7,0.3-1.1c0.1-0.1,0.2-0.3,0.4-0.3c0.1,0,0.2,0.1,0.3,0.2
			c0,0,0,0.1,0.1,0.2c0.3,0.7,0.4,0.8,1.2,0.7c0.1,0,0.1,0,0.2-0.1c0.4-0.2,0.7-0.1,0.9,0.3c0.1,0.1,0.2,0.2,0.3,0.3
			c0.3-0.2,0.3-0.4,0.3-0.7c0-0.3-0.2-0.5-0.2-0.7c0-0.2-0.1-0.4,0-0.5c0.1-0.4,0.2-0.5,0.6-0.3c0.2,0.1,0.4,0.2,0.7,0.2
			c0.2,0,0.3-0.1,0.2-0.3c-0.1-0.5-0.2-1-0.3-1.4c0.8-0.4,1.6-0.3,2.2,0.3c0.2,0.2,0.5,0.2,0.7,0.1c0.2-0.1,0.3-0.3,0.2-0.5
			c-0.1-0.4,0-0.5,0.4-0.6c0.9-0.2,1.8-0.4,2.7-0.5c0.4-0.1,0.8-0.2,1.3-0.3c0.1,0,0.1,0,0.2,0c-0.1,0.3-0.2,0.7-0.3,0.9
			c0.3,0.4,0.7,0.8,1,1.2c0.1,0.1,0.2,0.3,0.4,0.3c0.7,0.2,1.4,0.4,2.1,0.5c0.9,0.2,1.8,0.3,2.7,0.4c0.5,0.1,0.6,0.3,0.2,0.6
			c-0.3,0.3-0.6,0.6-0.9,0.9c-0.3,0.3-0.2,0.5,0.2,0.6c0.1,0,0.3,0,0.4,0.1c0.3,0,0.3,0.2,0.2,0.4c-0.1,0.2-0.3,0.5-0.4,0.7
			c0,0.1,0,0.3,0,0.3c0.3,0.1,0.3,0.3,0.3,0.6c0,0.1,0.1,0.3,0.3,0.4c0.2,0.2,0.5,0.4,0.7,0.6c0.2,0.2,0.2,0.5-0.1,0.8
			c-0.2,0.3-0.4,0.1-0.6-0.1c-0.1-0.2-0.3-0.3-0.4-0.5c-0.1-0.1-0.2-0.1-0.3-0.1c-0.5,0-0.9,0.1-1.4,0.2c-0.2,0-0.5,0-0.7,0.1
			c-0.9,0.4-1.6,1.1-2.6,1.2c-0.6,0-1,1-0.7,1.5c0.2,0.5,0.5,0.9,0.8,1.3c0.2,0.3,0.2,0.6,0,0.9c-0.1,0.3-0.3,0.5-0.7,0.5
			c-0.4,0-0.5,0-0.4,0.5c0.2,1,0.5,2.1,0.7,3.1c0.1,0.2,0.3,0.5,0.5,0.7c1.2,0.9,2.3,1.7,3.5,2.5c0.1,0.1,0.2,0.1,0.3,0.1
			c0.3-0.1,0.5,0,0.6,0.3c0.2,0.3,0.5,0.6,0.6,1c0.4,1.4,0.7,2.8,1.4,4.1c0,0,0,0,0,0c0.1,0.4,0.3,0.6,0.6,0.8
			c0.3,0.2,0.6,0.4,0.7,0.8c0.1,0.4,0.4,0.6,0.7,0.7c0.4,0.2,0.8,0.6,1.2,0.8c0.1,0.1,0.3,0.3,0.4,0.3c0.7,0.3,1.4,0.6,2.2,0.8
			c0.7,0.2,1.5,0.3,2.2,0c0.4-0.1,0.9-0.2,1.3-0.3c0.2,0.4,0.1,0.8-0.1,1.1c-0.3,0.4-0.7,0.8-1,1.2c-0.3,0.3-0.3,0.5,0.1,0.7
			c1,0.5,2.1,0.9,3.1,1.4c1,0.4,2,0.7,2.8,1.4c1,0.9,2,1.6,3.2,2.1c0.1,0.1,0.3,0.1,0.4,0.2c0.2,0.2,0.5,0.4,0.6,0.7
			c0.3,0.5,0.4,1,0.6,1.5c0,0.2,0,0.4,0,0.6c-0.2,0.4-0.5,0.9-0.7,1.3c-0.1,0.2-0.2,0.2-0.4,0.1c-0.6-0.2-1-0.6-1.1-1.2
			c-0.1-0.5-0.4-0.9-0.6-1.4c-0.1-0.2-0.2-0.3-0.4-0.2c-0.9,0.2-1.6-0.1-2.3-0.6c-0.4-0.2-0.7-0.2-1,0c-0.1,0.1-0.3,0.3-0.4,0.4
			c-0.5,0.8-0.9,1.6-1.4,2.5c-0.2,0.4-0.2,0.6,0.1,1c0.1,0.1,0.3,0.3,0.5,0.4c0.5,0.2,0.9,0.4,1.4,0.6c0.3,0.1,0.4,0.3,0.5,0.7
			c0,0.6,0.1,1.3,0.2,1.9c0.1,0.6,0.1,0.6-0.5,0.8c-0.5,0.1-0.9,0.3-1.4,0.4c-0.4,0.1-0.7,0.4-0.7,0.9c-0.1,0.9-0.5,1.6-1,2.3
			c-0.4,0.5-0.7,1.1-1.1,1.6C66,74.8,65.8,75,65.6,75c-0.7,0.1-1.1-0.2-1.3-0.8c-0.1-0.2-0.1-0.4-0.2-0.6c-0.3,0.3-0.5,0.5-0.7,0.7
			C62.6,75,62.1,75.9,62,77c-0.1,0.4-0.1,0.8,0.2,1.2c0.6,0.8,0.8,1.6,0.3,2.6c-0.2,0.3-0.3,0.6-0.7,0.8
			C61.6,81.5,61.4,81.5,61.2,81.5z"/>
	</g>
	<g>
		<path class="st1" d="M36.4,57c0,0.2,0,0.4-0.1,0.6c-0.2,0.3-0.1,0.5,0.2,0.7c0.4,0.3,0.8,0.4,1.3,0.1c0.3-0.2,0.6-0.4,0.8-0.6
			c0.5-0.4,0.9-0.8,1.4-1.2c0.7-0.5,1.1-0.4,1.5,0.3c0,0,0,0.1,0,0.1c0.1,1.1,0.9,2,1.1,3c0.1,0.4,0.1,0.8-0.3,1.2
			c-0.4,0.4-0.6,0.8-0.3,1.5c0.4,1.1,0.7,2.3,0,3.4c-0.1,0.3-0.1,0.6-0.2,0.9c-0.1,0.3-0.3,0.6-0.5,0.8c0,0.1-0.3,0-0.4,0
			c-0.4-0.3-1.1-0.2-1.3,0.3c0,0.1,0,0.2,0,0.3c0.1,0.3,0,0.4-0.2,0.5c-0.3,0.1-0.6,0.2-0.9,0.3c-0.4,0.1-0.8,0-1-0.4
			c-0.1-0.1-0.1-0.2-0.2-0.3c-0.2,0.2-0.4,0.4-0.6,0.6c-0.3-0.4-0.1-0.7-0.1-1.1c0.1-0.8,0.2-1.6,0.3-2.4c0.1-0.4,0.2-0.7,0.4-1
			c0.2-0.4,0.1-0.7-0.4-0.8c-0.4-0.1-0.5-0.4-0.3-0.8c0.1-0.2,0.4-0.5,0.4-0.7c0-0.4-0.2-0.9-0.4-1.3c-0.2-0.4-0.6-0.7-0.8-1.1
			c-0.2-0.2-0.2-0.4-0.1-0.7c0.2-0.6,0.2-1.1,0.4-1.7c0-0.2,0.1-0.4,0.2-0.7C36.3,57,36.4,57,36.4,57z"/>
	</g>
</g>
</svg>
