<?xml version="1.0" encoding="utf-8"?>
<!-- Generator: Adobe Illustrator 21.1.0, SVG Export Plug-In . SVG Version: 6.00 Build 0)  -->
<svg version="1.1" id="Слой_1" xmlns="http://www.w3.org/2000/svg" xmlns:xlink="http://www.w3.org/1999/xlink" x="0px" y="0px"
	 viewBox="0 0 100 100" style="enable-background:new 0 0 100 100;" xml:space="preserve">
<style type="text/css">
	.st0{fill:#C69C6C;}
	.st1{fill:#A97C50;}
</style>
<path class="st0" d="M50.6,1.4C23.7,1.4,1.8,23.3,1.8,50.2S23.7,99,50.6,99s48.8-21.9,48.8-48.8S77.5,1.4,50.6,1.4z M50.6,92
	c-10,0-19.2-3.5-26.4-9.4l7.3-7.3c-2.4-1.8-4.5-4-6.3-6.4l-7.3,7.3C12.2,69,8.8,60,8.8,50.2c0-23,18.7-41.8,41.8-41.8
	c9.8,0,18.8,3.4,25.9,9.1l-6.7,6.7c2.4,1.8,4.6,3.9,6.4,6.3l6.7-6.7c5.9,7.2,9.4,16.4,9.4,26.4C92.4,73.2,73.7,92,50.6,92z"/>
<g>
	<g>
		<path class="st1" d="M41,71.3c-0.4,0.2-0.7,0.4-1,0.6c-0.1-0.5-0.2-1-0.3-1.5c-0.4,0.5-0.8,1-1.2,1.6c-0.3-0.4-0.5-0.8-0.7-1.1
			c-0.4,0.2-0.7,0.5-1.1,0.6c-0.4,0.1-0.6-0.2-0.9-0.9c-0.1,0.1-0.3,0.1-0.4,0.2c-0.3,0.2-0.6,0.4-0.9,0.5c-0.3,0.2-0.5,0.3-0.7,0
			c0,0-0.1,0-0.1-0.1c-0.1-0.1-0.2-0.1-0.4-0.2c0.1-0.1,0.2-0.2,0.3-0.3c0.1-0.1,0.2-0.2,0.2-0.3c-0.2-0.8-0.2-1.5-0.1-2.3
			c0-0.1,0-0.2-0.1-0.2c-0.7-0.4-1-1.2-1.2-2c-0.1,0.2-0.3,0.3-0.4,0.5c0,0-0.1,0-0.1,0c0-1.2-0.1-2.3-0.1-3.5
			c-0.1,0.1-0.2,0.2-0.3,0.3c0-0.7-0.1-1.2-0.1-1.9c-0.1,0.1-0.2,0.2-0.2,0.3c0,0-0.1,0-0.1,0c0.1-1.1,0.1-2.3,0.2-3.4
			c-0.1,0.1-0.3,0.2-0.5,0.5c0.1-0.8,0.1-1.6,0.4-2.3c0.3-0.7,0.8-1.3,1.3-2c-0.2,0.1-0.4,0.2-0.7,0.3c0.1-0.5,0.2-1,0.3-1.4
			c0.1-0.6,0.4-1.3,0.4-1.9c0.1-1.2,0-2.4-0.4-3.6c0-0.2-0.2-0.3-0.3-0.5c-0.2,0.1-0.4,0.2-0.5,0.4c-0.4,0.7-0.9,1.4-1.2,2.2
			c-0.5,1.2-0.9,2.4-1.3,3.6c0-0.1-0.1-0.1-0.1-0.3c0,0.1-0.1,0.1-0.1,0.2c-0.3-0.2-0.5-0.5-0.8-0.8c-0.1,0.4-0.2,0.7-0.2,1.1
			c-0.3-0.2-0.6-0.5-0.9-0.7c-0.1,0.4-0.3,0.7-0.4,1.1c0,0-0.1,0-0.1,0c-0.5-0.7-1-1.2-1.8-1.6c-0.3-0.1-0.5-0.4-0.7-0.6
			c0,0,0,0.1-0.1,0.3c-0.3-0.5-0.6-0.9-0.9-1.3c0,0.1-0.1,0.3-0.1,0.4c-1-0.7-1.4-1.6-1.4-2.8c0-0.2-0.1-0.4-0.1-0.6
			c-0.1-0.4-0.2-0.9-0.3-1.4c-0.1,0-0.2-0.1-0.3-0.1c-0.3-1.8,0.2-3.3,1.4-4.6c0.6-0.6,1.1-1.2,1.6-1.9c0.1-0.1,0.2-0.3,0.3-0.5
			c0,0,0,0-0.1-0.1c-0.2,0.2-0.3,0.3-0.5,0.6c0-0.4,0-0.6-0.1-0.9c-0.3-0.1-0.6-0.2-1-0.3c0.1-0.4,0.2-0.7,0.3-1.1
			c-0.2-0.1-0.3-0.3-0.5-0.4c0.5-0.8,1.1-1.6,1.9-2.1c1.3-1,2.7-1.9,4-2.8c0.5-0.3,0.9-0.7,1.4-1c-0.6-1.1-1-2.2-1.1-3.4
			c-0.1-0.6-0.1-1.3,0-1.9c0-0.5,0.4-0.9,0.9-1.2c0.2-0.1,0.4-0.1,0.5,0.1c0.3,0.3,0.6,0.6,0.8,1c0.6,1.1,1.6,1.8,2.7,2.4
			c0.5-1.4,0.8-3,2.7-3.4c0,0.5,0.1,1.1,0.1,1.6c0,2.2,1,4,2.5,5.5c1,1,1.9,2,2.9,3c1.2,1.3,2.1,2.8,3,4.4c0.2,0.3,0.4,0.6,0.6,1
			c0.5,0.9,1.2,1.5,2.1,1.9c0.6,0.3,1.2,0.6,1.7,0.9c0.3,0.1,0.5,0.3,0.7,0.5c0.9,1,2.2,1.2,3.4,1.2c2.8-0.1,5.6-0.1,8.4-0.3
			c1.9-0.1,3.8-0.4,5.7-0.6c2-0.2,3.4-1.7,3.6-3.8c0.1-1.1,0.2-2.2,0.2-3.3c0.1-1.2,0.1-2.4,0.2-3.6c0-0.8,0.3-1.4,0.9-2.1
			c1,1.1,1.7,2.3,1.9,3.7c0.2,1.2,0.3,2.4,0.5,3.6c0.1,0.9,0.4,1.8,0.5,2.7c0.2,1.2,0.1,2.3-0.2,3.5c-0.2,0.8-0.4,1.6-0.1,2.3
			c0.2,0.6,0.7,1.2,1.1,1.7c0.4,0.6,0.9,1.1,1,1.8c0.1,0.3,0.1,0.7,0.1,1.1c-0.2,0-0.3,0-0.4-0.1c0.2,0.6,0.5,1.2,0.7,1.9
			c0.1,0.4,0.3,0.7,0.6,1c0.5,0.4,0.6,1,0.5,1.7c0,0.2,0,0.5,0.1,0.7c0.3,0.6,0.6,1.2,0.7,1.8c0,0.1,0.1,0.2,0.1,0.3
			c0.3,0.4,0.5,0.8,0.8,1.2c0.6,0.9,0.9,1.8,1.1,3c-0.4-0.3-0.8-0.6-1.2-0.8c0.6,1,0.9,2.1,0.5,3.2c-0.2-0.1-0.4-0.3-0.6-0.4
			c-0.1,1-0.1,2-0.2,3.1c-0.2-0.3-0.3-0.5-0.5-0.7c-0.1,0.9-0.7,1.4-1.2,2c0-0.1,0-0.2,0-0.2c-0.4,0.3-0.9,0.6-1.4,1
			c0-0.4,0-0.6,0-0.8c-0.7,0.5-1.3,1-2,1.5c0-0.3-0.1-0.5-0.1-0.7c-0.5,0.2-0.9,0.4-1.3,0.5c-0.8,0.2-1.6,0.2-2.3-0.4
			c-0.1,0-0.2,0-0.3,0c-0.4,0.2-0.8,0.4-1.2,0.7c-0.2,0.1-0.4,0.2-0.5-0.1c-0.5,0.3-0.9,0.5-1.4,0.8c0-0.3,0-0.5,0.1-0.8
			c-0.2,0.2-0.4,0.3-0.6,0.5c-0.4-0.3-0.7-0.8-0.7-1.3c0,0-0.1,0-0.1,0c-0.4,0.5-0.8,1-1.2,1.5c-0.2-1.3-0.1-2.4,0.5-3.5
			c0,0-0.1-0.1-0.1-0.1c-0.8,0.7-1.6,1.4-2.5,2.1c0.1-0.5,0.1-0.9,0.2-1.4c-0.4,0.4-0.6,0-0.8,0c-0.3-0.1-0.2-0.3-0.2-0.5
			c0.1-0.5-0.2-1-0.5-1.3c-0.1,0.9-0.2,1.8-0.3,2.7c0,0-0.1,0-0.1,0c-0.3-0.7-0.6-1.4-0.9-2.1c0,0-0.1,0-0.1,0
			c0.1,0.3,0.1,0.6,0.2,1c-0.6-0.3-1.2-0.5-1.8-0.8c0.2,0.4,0.3,0.8,0.5,1.2c-1.2-0.5-2.1-1.3-2.9-2.3c0.3,0.7,0.7,1.3,0.7,2.1
			c-1.4,0.1-2.1-0.8-3-1.6c-0.2,0.3-0.4,0.5-0.7,0.8c-0.4-0.4-0.8-0.8-1.2-1.2c0,0,0,0-0.1,0c0.3,0.4,0.5,0.8,0.8,1.3
			c-0.7-0.3-1.3-0.5-1.9-0.7c0.1,0.4,0.1,0.8,0.2,1.3c-0.5-0.2-0.9-0.4-1.4-0.6c0.4,0.6,0.7,1.2,1.2,2c-0.6-0.2-1.1-0.3-1.6-0.5
			c0.2,0.3,0.3,0.5,0.5,0.9c-0.4,0-0.7,0.1-1,0.1c0.1,0.3,0.2,0.6,0.3,0.9c-0.6,0.2-1.1,0.1-1.6-0.1c-0.3-0.1-0.6-0.1-0.8-0.2
			c-0.6-0.1-1.1-0.2-1.7-0.3c-0.3,0-0.5,0-0.8,0c0,0-0.1,0-0.1,0c-0.6-0.3-0.8,0.2-1,0.5c-0.3,0.3-0.5,0.7-0.9,1.1
			C40.9,72.4,40.9,71.9,41,71.3z"/>
	</g>
</g>
</svg>
