<?xml version="1.0" encoding="utf-8"?>
<!-- Generator: Adobe Illustrator 21.1.0, SVG Export Plug-In . SVG Version: 6.00 Build 0)  -->
<svg version="1.1" id="Слой_1" xmlns="http://www.w3.org/2000/svg" xmlns:xlink="http://www.w3.org/1999/xlink" x="0px" y="0px"
	 viewBox="0 0 100 100" style="enable-background:new 0 0 100 100;" xml:space="preserve">
<style type="text/css">
	.st0{fill:#A97C50;}
	.st1{fill:#C69C6C;}
</style>
<g>
	<path class="st0" d="M32,40.8v8.9c0,4.3,3.5,7.8,7.8,7.8h5.2c-0.1,0.3-0.1,0.5-0.2,0.8c-0.7,3.1-1.1,6.1-1.1,9.2
		c0,3.1,0.3,6.1,1.1,9.2c0.4,1.5,0.9,3.1,1.5,4.6c0.3,0.8,0.7,1.5,1.1,2.3c0.4,0.8,0.8,1.5,1.4,2.3c0.6-0.8,1-1.5,1.4-2.3
		c0.4-0.8,0.7-1.5,1.1-2.3c0.6-1.5,1.1-3.1,1.5-4.6c0.7-3.1,1.1-6.1,1.1-9.2c0-3.1-0.3-6.1-1.1-9.2c-0.1-0.3-0.1-0.5-0.2-0.8h5.2
		c4.3,0,7.8-3.5,7.8-7.8v-8.9H32z"/>
</g>
<g>
	<path class="st0" d="M49.2,24.9l0,1.2h0c0.7,0,1.3,0.1,1.6,0.1c0.5,0.1,7.2,1,8,1.1l7.1,0.9c-0.2,1.1-0.4,2.9-0.8,6.3
		c-0.3,2.3-0.5,4.5-0.6,5.7H32.9C32,36.5,32,33,33.1,29.8c0.4-1.1,0.8-2,1.2-2.6c2.2,3,3.9,4.1,4,4.2l0.9,0.6l0.7-0.8
		c3.4-4.2,7-5.1,9.5-5.1L49.2,24.9 M49.2,24.9c-2.6,0-6.6,0.9-10.4,5.6c0,0-2-1.4-4.6-5.2c0,0-5.2,5.6-2.2,16.2h33.5
		c0,0,1.3-13.3,1.8-14.2l-8.4-1.1c0,0-7.4-1-7.9-1.1C50.6,24.9,50,24.9,49.2,24.9L49.2,24.9z"/>
</g>
<path class="st1" d="M51,1.4C24.1,1.4,2.2,23.3,2.2,50.2S24.1,99,51,99c26.9,0,48.8-21.9,48.8-48.8S77.9,1.4,51,1.4z M51,92
	c-10.1,0-19.3-3.6-26.5-9.5l9.4-9.4c-2.4-1.8-4.6-3.9-6.4-6.3L18.2,76c-5.6-7.1-9-16.1-9-25.8C9.2,27.1,28,8.4,51,8.4
	c9.7,0,18.6,3.3,25.7,8.8l-6.3,6.3c2.4,1.8,4.5,4,6.3,6.4l6.4-6.4c6,7.2,9.7,16.5,9.7,26.7C92.8,73.2,74,92,51,92z"/>
</svg>
